# Blender v2.80 (sub 74) OBJ File: ''
# www.blender.org
mtllib osso.mtl
o Icosphere.001
v -1.130290 0.122059 -0.292820
v -0.852574 0.407009 -0.632295
v -0.680931 0.323783 -0.113349
v -1.130290 0.272346 0.207386
v -1.579648 0.323783 -0.113349
v -1.408006 0.407009 -0.632296
v -0.680931 0.733406 -0.341897
v -0.852574 0.650180 0.177050
v -1.408006 0.650180 0.177050
v -1.579648 0.733406 -0.341897
v -1.130290 0.784843 -0.662631
v -1.130290 0.935130 -0.162425
v -0.966260 0.130114 0.189813
v -0.745458 0.356667 -0.080091
v -0.608991 0.290498 0.332505
v -0.966260 0.249602 0.587509
v -1.323529 0.290498 0.332505
v -1.187062 0.356667 -0.080091
v -0.608991 0.616174 0.150794
v -0.745458 0.550004 0.563391
v -1.187062 0.550004 0.563391
v -1.323529 0.616174 0.150794
v -0.966260 0.657070 -0.104210
v -0.966260 0.776557 0.293486
v 1.312711 0.334156 0.000379
v -0.964392 0.334155 0.000379
v 1.312711 0.382072 -0.110394
v -0.964392 0.382072 -0.110394
v 1.312711 0.470476 -0.169426
v -0.964392 0.470476 -0.169426
v 1.312711 0.565601 -0.154171
v -0.964392 0.565600 -0.154171
v 1.312711 0.631111 -0.070454
v -0.964392 0.631111 -0.070454
v 1.312711 0.641986 0.049746
v -0.964392 0.641985 0.049746
v 1.312711 0.594069 0.160519
v -0.964392 0.594069 0.160519
v 1.312711 0.505665 0.219551
v -0.964392 0.505665 0.219551
v 1.312711 0.410541 0.204296
v -0.964392 0.410541 0.204296
v 1.312711 0.345030 0.120579
v -0.964392 0.345030 0.120579
v 1.402122 0.130114 0.189813
v 1.622924 0.356667 -0.080091
v 1.759390 0.290498 0.332505
v 1.402122 0.249602 0.587509
v 1.044853 0.290498 0.332505
v 1.181319 0.356667 -0.080091
v 1.759390 0.616174 0.150794
v 1.622924 0.550004 0.563391
v 1.181319 0.550004 0.563391
v 1.044853 0.616174 0.150794
v 1.402122 0.657070 -0.104210
v 1.402122 0.776557 0.293486
v 1.402122 0.250528 -0.272217
v 1.592077 0.445431 -0.504415
v 1.709479 0.388506 -0.149460
v 1.402122 0.353323 0.069919
v 1.094765 0.388506 -0.149460
v 1.212166 0.445431 -0.504415
v 1.709479 0.668684 -0.305785
v 1.592077 0.611758 0.049170
v 1.212166 0.611758 0.049170
v 1.094765 0.668684 -0.305785
v 1.402122 0.703866 -0.525164
v 1.402122 0.806661 -0.183028
vt 0.368432 0.235246
vt 0.257607 0.183349
vt 0.393794 0.124288
vt 0.860843 0.675735
vt 0.733647 0.738188
vt 0.734074 0.598535
vt 0.393794 0.084854
vt 0.507648 0.000000
vt 0.533461 0.135873
vt 0.423502 0.222150
vt 0.393794 0.346204
vt 0.257607 0.287143
vt 0.860843 0.536760
vt 0.273282 0.037958
vt 0.607724 0.084855
vt 0.555719 0.222150
vt 0.273282 0.432533
vt 0.173437 0.095563
vt 0.393794 0.000000
vt 0.733646 0.600547
vt 0.733647 0.739523
vt 0.606878 0.662322
vt 0.393794 0.470492
vt 0.173437 0.374929
vt 0.473169 0.222150
vt 0.601606 0.282849
vt 0.475362 0.360772
vt 0.393794 0.324610
vt 0.606450 0.801975
vt 0.601606 0.422825
vt 0.473172 0.448632
vt 0.548828 0.635668
vt 0.460714 0.594407
vt 0.568992 0.547449
vt 0.861183 0.647793
vt 0.860843 0.536760
vt 0.961973 0.586413
vt 0.733647 0.067464
vt 0.824168 0.000000
vt 0.844691 0.108028
vt 0.757266 0.176623
vt 0.393794 0.711647
vt 0.473176 0.665848
vt 0.460713 0.781441
vt 0.961972 0.696908
vt 0.473177 0.478812
vt 0.903735 0.067465
vt 0.862388 0.176623
vt 0.568993 0.734483
vt 0.393794 0.524611
vt 0.568992 0.448632
vt 1.000000 0.336771
vt 1.000000 0.447266
vt 0.899211 0.385887
vt 0.568993 0.635668
vt 0.548828 0.822703
vt 0.898871 0.377210
vt 0.898871 0.488500
vt 0.798498 0.426546
vt 0.796757 0.356692
vt 0.898871 0.496920
vt 0.796755 0.536760
vt 0.733647 0.455298
vt 0.173437 0.600547
vt 0.147925 0.000000
vt 0.173437 0.000000
vt 0.147925 0.600547
vt 0.114801 0.000000
vt 0.114801 0.600547
vt 0.086718 0.000000
vt 0.733647 0.600547
vt 0.703295 0.000000
vt 0.733646 0.000000
vt 0.703295 0.600547
vt 0.670838 0.000000
vt 0.000000 0.000000
vt 0.025512 0.600547
vt 0.000000 0.600547
vt 0.025512 0.000000
vt 0.058636 0.600547
vt 0.058635 0.000000
vt 0.086718 0.600547
vt 0.966489 0.907104
vt 0.985874 0.963356
vt 0.884369 0.966396
vt 0.607724 0.000000
vt 0.638977 0.600546
vt 0.607724 0.600546
vt 0.638977 0.000000
vt 0.670838 0.600546
vt 0.309921 0.948834
vt 0.260438 0.910920
vt 0.279339 0.853351
vt 0.173437 0.581547
vt 0.240356 0.511753
vt 0.252819 0.627346
vt 0.884709 0.849221
vt 0.884369 0.738188
vt 0.985499 0.787841
vt 0.000000 0.668011
vt 0.090521 0.600547
vt 0.111044 0.708574
vt 0.023620 0.777170
vt 0.328470 0.657526
vt 0.348635 0.745745
vt 0.240357 0.698788
vt 0.985499 0.898336
vt 0.348635 0.558712
vt 0.170088 0.668012
vt 0.128741 0.777170
vt 0.252820 0.814383
vt 0.328471 0.470492
vt 0.348635 0.657526
vt 1.000000 0.336771
vt 0.899211 0.287656
vt 1.000000 0.226277
vt 0.348635 0.844562
vt 0.173437 0.768583
vt 0.898871 0.197142
vt 0.898871 0.308431
vt 0.798498 0.246478
vt 0.796757 0.176623
vt 0.898871 0.176623
vt 0.796755 0.356692
vt 0.733647 0.275229
vt 0.733647 0.833729
vt 0.791217 0.773685
vt 0.801938 0.873129
vt 0.990736 0.095058
vt 0.903735 0.137775
vt 0.904027 0.042254
vt 0.587320 0.860014
vt 0.665196 0.801975
vt 0.682851 0.894911
vt 0.607641 0.953923
vt 0.000000 0.842534
vt 0.068292 0.803134
vt 0.057571 0.902578
vt 0.990736 0.000000
vt 0.884369 0.814083
vt 0.733647 0.860015
vt 0.698076 0.953923
vt 0.150723 0.862180
vt 0.867022 0.738188
vt 0.884369 0.899093
vt 0.260438 0.982337
vt 0.173729 0.940083
vt 0.260438 0.887279
vt 0.150723 0.777170
vt 0.133375 0.938075
vt 0.535936 0.840355
vt 0.535936 0.936097
vt 0.449586 0.882799
vt 0.448087 0.822703
vt 0.173437 0.844562
vt 0.448086 0.977615
vt 0.393794 0.907533
vt 0.086718 0.600547
vt 0.670838 0.600547
vt 0.086718 0.000000
vt 0.903755 0.908983
vt 0.935122 0.898336
vt 0.985874 0.931940
vt 0.966489 0.989352
vt 0.935122 1.000000
vt 0.903755 0.991232
vt 0.884369 0.934980
vt 0.670838 0.000000
vt 0.309921 0.844562
vt 0.340503 0.855687
vt 0.359404 0.882476
vt 0.359404 0.914698
vt 0.340503 0.940045
vt 0.279339 0.937710
vt 0.260438 0.878698
vn 0.4865 -0.8231 -0.2929
vn 0.0000 -0.7659 -0.6429
vn 0.3005 -0.9135 0.2744
vn -0.3005 -0.9135 0.2744
vn -0.4865 -0.8231 -0.2929
vn 0.0000 -0.0800 -0.9968
vn 0.9233 -0.1871 -0.3354
vn 0.5691 -0.3589 0.7398
vn -0.5691 -0.3589 0.7398
vn -0.9233 -0.1871 -0.3354
vn 0.5691 0.3589 -0.7398
vn 0.9233 0.1871 0.3354
vn 0.0000 0.0800 0.9968
vn -0.9233 0.1871 0.3354
vn -0.5691 0.3589 -0.7398
vn 0.3005 0.9135 -0.2744
vn 0.4865 0.8231 0.2929
vn -0.0000 0.7659 0.6429
vn -0.4865 0.8231 0.2929
vn -0.3005 0.9135 -0.2744
vn 0.0000 -0.9178 -0.3970
vn 0.0000 -0.5553 -0.8316
vn 0.0000 0.1584 -0.9874
vn -0.0000 0.7875 -0.6163
vn -0.0000 0.9959 -0.0901
vn -0.0000 0.9178 0.3970
vn -0.0000 0.5553 0.8316
vn -0.0000 -0.1584 0.9874
vn -1.0000 0.0000 0.0000
vn 0.0000 -0.7875 0.6163
vn 0.0000 -0.9959 0.0901
vn 1.0000 0.0000 0.0000
usemtl osso
s off
f 1/1/1 2/2/1 3/3/1
f 2/4/2 1/5/2 6/6/2
f 1/7/3 3/8/3 4/9/3
f 1/7/4 4/9/4 5/10/4
f 1/1/5 5/11/5 6/12/5
f 2/4/6 6/6/6 11/13/6
f 3/3/7 2/2/7 7/14/7
f 4/9/8 3/8/8 8/15/8
f 5/10/9 4/9/9 9/16/9
f 6/12/10 5/11/10 10/17/10
f 2/2/11 11/18/11 7/14/11
f 3/3/12 7/14/12 8/19/12
f 4/20/13 8/21/13 9/22/13
f 5/11/14 9/23/14 10/17/14
f 6/12/15 10/17/15 11/24/15
f 7/25/16 11/26/16 12/27/16
f 8/28/17 7/25/17 12/27/17
f 9/22/18 8/21/18 12/29/18
f 10/30/19 9/31/19 12/27/19
f 11/26/20 10/30/20 12/27/20
f 13/32/1 14/33/1 15/34/1
f 14/35/2 13/36/2 18/37/2
f 13/38/3 15/39/3 16/40/3
f 13/38/4 16/40/4 17/41/4
f 13/42/5 17/43/5 18/44/5
f 14/35/6 18/37/6 23/45/6
f 15/34/7 14/33/7 19/46/7
f 16/40/8 15/39/8 20/47/8
f 17/41/9 16/40/9 21/48/9
f 18/44/10 17/43/10 22/49/10
f 14/33/11 23/50/11 19/46/11
f 15/34/12 19/46/12 20/51/12
f 16/52/13 20/53/13 21/54/13
f 17/43/14 21/55/14 22/49/14
f 18/44/15 22/49/15 23/56/15
f 19/57/16 23/58/16 24/59/16
f 20/60/17 19/57/17 24/59/17
f 21/54/18 20/53/18 24/61/18
f 22/62/19 21/63/19 24/59/19
f 23/58/20 22/62/20 24/59/20
f 26/64/21 27/65/21 25/66/21
f 28/67/22 29/68/22 27/65/22
f 30/69/23 31/70/23 29/68/23
f 32/71/24 33/72/24 31/73/24
f 34/74/25 35/75/25 33/72/25
f 36/76/26 37/77/26 35/78/26
f 38/79/27 39/80/27 37/77/27
f 40/81/28 41/82/28 39/80/28
f 26/83/29 42/84/29 34/85/29
f 42/86/30 43/87/30 41/88/30
f 44/89/31 25/90/31 43/87/31
f 35/91/32 39/92/32 43/93/32
f 45/94/1 46/95/1 47/96/1
f 46/97/2 45/98/2 50/99/2
f 45/100/3 47/101/3 48/102/3
f 45/100/4 48/102/4 49/103/4
f 45/104/5 49/105/5 50/106/5
f 46/97/6 50/99/6 55/107/6
f 47/96/7 46/95/7 51/108/7
f 48/102/8 47/101/8 52/109/8
f 49/103/9 48/102/9 53/110/9
f 50/106/10 49/105/10 54/111/10
f 46/95/11 55/112/11 51/108/11
f 47/96/12 51/108/12 52/113/12
f 48/114/13 52/115/13 53/116/13
f 49/105/14 53/117/14 54/111/14
f 50/106/15 54/111/15 55/118/15
f 51/119/16 55/120/16 56/121/16
f 52/122/17 51/119/17 56/121/17
f 53/116/18 52/115/18 56/123/18
f 54/124/19 53/125/19 56/121/19
f 55/120/20 54/124/20 56/121/20
f 57/126/1 58/127/1 59/128/1
f 58/129/2 57/130/2 62/131/2
f 57/132/3 59/133/3 60/134/3
f 57/132/4 60/134/4 61/135/4
f 57/136/5 61/137/5 62/138/5
f 58/129/6 62/131/6 67/139/6
f 59/128/7 58/127/7 63/140/7
f 60/134/8 59/133/8 64/141/8
f 61/135/9 60/134/9 65/142/9
f 62/138/10 61/137/10 66/143/10
f 58/127/11 67/144/11 63/140/11
f 59/128/12 63/140/12 64/145/12
f 60/146/13 64/147/13 65/148/13
f 61/137/14 65/149/14 66/143/14
f 62/138/15 66/143/15 67/150/15
f 63/151/16 67/152/16 68/153/16
f 64/154/17 63/151/17 68/153/17
f 65/148/18 64/147/18 68/155/18
f 66/156/19 65/157/19 68/153/19
f 67/152/20 66/156/20 68/153/20
f 26/64/21 28/67/21 27/65/21
f 28/67/22 30/69/22 29/68/22
f 30/69/23 32/158/23 31/70/23
f 32/71/24 34/74/24 33/72/24
f 34/74/25 36/159/25 35/75/25
f 36/76/26 38/79/26 37/77/26
f 38/79/27 40/81/27 39/80/27
f 40/81/28 42/160/28 41/82/28
f 30/161/29 28/162/29 26/83/29
f 26/83/29 44/163/29 42/84/29
f 42/84/29 40/164/29 38/165/29
f 38/165/29 36/166/29 42/84/29
f 36/166/29 34/85/29 42/84/29
f 34/85/29 32/167/29 30/161/29
f 30/161/29 26/83/29 34/85/29
f 42/86/30 44/89/30 43/87/30
f 44/89/31 26/168/31 25/90/31
f 43/93/32 25/169/32 27/170/32
f 27/170/32 29/171/32 43/93/32
f 29/171/32 31/172/32 43/93/32
f 31/172/32 33/173/32 35/91/32
f 35/91/32 37/174/32 39/92/32
f 39/92/32 41/175/32 43/93/32
f 31/172/32 35/91/32 43/93/32
