# Blender v2.80 (sub 74) OBJ File: 'Potions3.blend'
# www.blender.org
mtllib redpotion.mtl
o Potion_Cylinder.002
v -0.165863 1.332363 0.014589
v -0.117284 1.332363 0.131872
v -0.133385 1.559399 0.147975
v -0.188635 1.559399 0.014589
v -0.133385 1.559399 -0.118796
v 0.010660 1.559399 0.181144
v 0.128433 1.559399 0.132362
v 0.177217 1.559399 0.014589
v 0.128433 1.559399 -0.103184
v 0.010660 1.559399 -0.151967
v 0.000000 1.332363 0.180453
v 0.117283 1.332363 0.131872
v 0.165864 1.332363 0.014589
v 0.117283 1.332363 -0.102695
v 0.000000 1.332363 -0.151274
v -0.117284 1.332363 -0.102695
v -0.168959 -0.005371 0.014589
v -0.119473 -0.005371 -0.104883
v -0.000000 -0.005371 -0.154370
v 0.119473 -0.005371 -0.104883
v 0.168959 -0.005371 0.014589
v 0.119473 -0.005371 0.134062
v -0.000000 -0.005371 0.183549
v -0.119473 -0.005371 0.134062
v -0.171402 1.040689 0.014589
v -0.121200 1.040689 0.135788
v -0.121200 1.208698 0.135788
v -0.171402 1.208698 0.014589
v -0.121200 1.208698 0.135788
v -0.171402 1.208698 0.014589
v 0.000000 1.040689 0.185991
v 0.000000 1.208698 0.185991
v 0.121201 1.040689 0.135788
v 0.121201 1.208698 0.135788
v 0.171402 1.040689 0.014589
v 0.171402 1.208698 0.014589
v 0.121201 1.040689 -0.106611
v 0.121201 1.208698 -0.106611
v 0.000000 1.040689 -0.156814
v 0.000000 1.208698 -0.156814
v -0.121200 1.040689 -0.106611
v -0.121200 1.208698 -0.106611
v -0.154785 1.208698 0.169375
v -0.218900 1.208698 0.014589
v 0.000000 1.208698 0.185991
v 0.121201 1.208698 0.135788
v 0.171402 1.208698 0.014589
v 0.121201 1.208698 -0.106611
v 0.000000 1.208698 -0.156814
v -0.121200 1.208698 -0.106611
v -0.154785 1.332363 0.169375
v -0.218900 1.332363 0.014589
v 0.000000 1.208698 0.233489
v 0.154786 1.208698 0.169375
v 0.218900 1.208698 0.014589
v 0.154786 1.208698 -0.140196
v 0.000000 1.208698 -0.204311
v -0.154785 1.208698 -0.140196
v -0.147163 1.332363 0.161752
v -0.208119 1.332363 0.014589
v 0.000000 1.332363 0.233489
v 0.154786 1.332363 0.169375
v 0.218900 1.332363 0.014589
v 0.154786 1.332363 -0.140196
v 0.000000 1.332363 -0.204311
v -0.154785 1.332363 -0.140196
v 0.000000 1.332363 0.222708
v 0.147163 1.332363 0.161752
v 0.208118 1.332363 0.014589
v 0.147163 1.332363 -0.132574
v 0.000000 1.332363 -0.193530
v -0.147163 1.332363 -0.132574
v -0.168959 0.005371 0.014589
v -0.119473 0.005371 -0.104883
v 0.000000 0.005371 -0.154370
v 0.119473 0.005371 -0.104883
v 0.168959 0.005371 0.014589
v 0.119473 0.005371 0.134062
v 0.000000 0.005371 0.183549
v -0.119473 0.005371 0.134062
vt 0.160108 0.986183
vt 0.000000 0.929516
vt 0.159411 0.924773
vt 0.554167 0.722904
vt 0.608562 0.553355
vt 0.769857 0.635706
vt 0.380058 0.837683
vt 0.220642 0.930963
vt 0.220847 0.830964
vt 0.380058 0.986998
vt 0.379758 0.924506
vt 0.443606 0.987370
vt 0.532563 0.833441
vt 0.532563 0.988828
vt 0.380058 0.831538
vt 0.443234 0.831977
vt 0.979776 0.837665
vt 0.820488 0.917650
vt 0.820658 0.830451
vt 0.979776 0.985905
vt 0.979607 0.924501
vt 0.000792 0.830761
vt 0.160108 0.837939
vt 0.000792 0.999358
vt 0.537012 0.623188
vt 0.709747 0.553356
vt 0.769857 0.722905
vt 0.706683 0.784564
vt 0.617341 0.784563
vt 0.220943 0.993716
vt 0.380692 0.986932
vt 0.820603 1.000000
vt 0.537012 0.935571
vt 0.537012 0.847114
vt 0.601098 0.784564
vt 0.537012 0.715434
vt 0.472000 0.831538
vt 0.472000 0.716634
vt 0.000000 0.000000
vt 0.000000 0.000000
vt 0.000000 0.000000
vt 0.313894 0.716043
vt 0.221967 0.830951
vt 0.221967 0.716030
vt 0.380058 0.715531
vt 0.313894 0.830964
vt 0.912428 0.715531
vt 0.820488 0.830451
vt 0.820488 0.715531
vt 0.156955 0.114924
vt 0.221967 0.000291
vt 0.221967 0.115215
vt 0.065013 0.114924
vt 0.156955 0.000000
vt 0.000000 0.115215
vt 0.065013 0.000000
vt 0.380058 0.831538
vt 0.380058 0.716634
vt 0.632780 0.306695
vt 0.737460 0.276678
vt 0.724721 0.306695
vt 0.000000 0.000000
vt 0.000000 0.000000
vt 0.000000 0.000000
vt 0.000000 0.000000
vt 0.000000 0.000000
vt 0.000000 0.000000
vt 0.000000 0.000000
vt 0.000000 0.000000
vt 0.000000 0.000000
vt 0.000000 0.000000
vt 0.000000 0.000000
vt 0.000000 0.000000
vt 0.000000 0.000000
vt 1.000000 0.472987
vt 0.912428 0.391278
vt 0.999081 0.391940
vt 0.567767 0.370148
vt 0.620040 0.276678
vt 0.537012 0.472318
vt 0.537012 0.357715
vt 0.567767 0.459886
vt 0.620040 0.553355
vt 0.724721 0.523339
vt 0.632779 0.523338
vt 0.789734 0.459885
vt 0.737460 0.553355
vt 0.820488 0.357715
vt 0.820488 0.472318
vt 0.789734 0.370148
vt 0.537012 0.195641
vt 0.622932 0.269865
vt 0.620040 0.276678
vt 0.999095 0.587845
vt 0.912825 0.472987
vt 0.999492 0.473260
vt 0.999492 0.670319
vt 0.912428 0.587571
vt 0.912428 0.670319
vt 0.999095 0.784923
vt 0.912428 0.784923
vt 0.912810 0.195641
vt 0.999098 0.276678
vt 0.912428 0.276678
vt 0.912810 0.081037
vt 0.999479 0.195641
vt 0.912428 0.000000
vt 0.999479 0.081037
vt 0.913348 0.276678
vt 1.000000 0.277340
vt 0.571354 0.181758
vt 0.634265 0.243160
vt 0.537012 0.081037
vt 0.543993 0.192819
vt 0.622932 0.006813
vt 0.543993 0.083859
vt 0.737460 0.000000
vt 0.620040 0.000000
vt 0.813508 0.083859
vt 0.734568 0.006814
vt 0.820488 0.195641
vt 0.820488 0.081037
vt 0.737460 0.276678
vt 0.813508 0.192819
vt 0.734569 0.269865
vt 0.571353 0.094920
vt 0.634265 0.033518
vt 0.723235 0.033517
vt 0.786147 0.094921
vt 0.723236 0.243161
vt 0.786147 0.181757
vt 0.691729 0.784564
vt 0.755815 0.847113
vt 0.755815 0.935571
vt 0.691730 0.998120
vt 0.601099 0.998120
vt 0.537012 0.830339
vt 0.380058 0.830452
vt 0.912428 0.830451
vt 0.000000 0.000291
vt 0.913348 0.472325
vt 0.912825 0.670046
vt 0.999095 0.670319
vt 0.999098 0.000000
vt 0.471345 0.008529
vt 0.380714 0.001182
vt 0.471345 0.001182
vt 0.001582 0.823413
vt 0.065668 0.830473
vt 0.001582 0.830761
vt 0.065668 0.823125
vt 0.156299 0.830473
vt 0.156299 0.823125
vt 0.220385 0.830761
vt 0.911773 0.007348
vt 0.821142 0.000000
vt 0.911773 0.000000
vt 0.378489 0.007348
vt 0.313267 0.000504
vt 0.378489 0.000000
vt 0.535431 0.007347
vt 0.535431 0.000000
vt 0.313267 0.007852
vt 0.222650 0.000491
vt 0.222650 0.007839
vt 0.821142 0.007348
vt 0.220385 0.823413
vt 0.380714 0.008529
vn -0.9199 -0.0923 0.3810
vn 0.0000 1.0000 -0.0000
vn -0.3260 -0.0214 0.9451
vn -0.2765 -0.0524 0.9596
vn -0.2236 -0.0847 0.9710
vn 0.3826 -0.0208 0.9237
vn 0.9229 -0.0461 0.3823
vn 0.9229 -0.0462 0.3823
vn 0.9229 -0.0461 -0.3823
vn 0.3826 -0.0208 -0.9237
vn -0.3260 -0.0214 -0.9451
vn -0.2765 -0.0524 -0.9596
vn -0.3826 0.0151 -0.9238
vn -0.9199 -0.0923 -0.3810
vn -0.3826 0.0152 0.9238
vn -0.2236 -0.0847 -0.9710
vn -0.0000 -1.0000 -0.0000
vn -0.9239 -0.0011 0.3827
vn -0.9239 0.0000 0.3827
vn 0.0000 0.0000 1.0000
vn -0.3827 -0.0011 0.9239
vn -0.3827 0.0000 0.9239
vn 0.3827 -0.0011 0.9239
vn 0.3827 -0.0000 0.9239
vn 0.9239 -0.0011 0.3827
vn 0.9239 -0.0000 0.3827
vn 0.9239 -0.0011 -0.3827
vn 0.9239 -0.0000 -0.3827
vn 0.3827 -0.0011 -0.9239
vn 0.3827 -0.0000 -0.9239
vn -0.3827 -0.0011 -0.9239
vn -0.3827 0.0000 -0.9239
vn -0.9239 -0.0011 -0.3827
vn -0.9239 0.0000 -0.3827
usemtl brown.001
s 1
f 2/1/1 4/2/1 1/3/1
f 10/4/2 4/5/2 6/6/2
f 2/7/3 6/8/4 3/9/5
f 12/10/6 6/8/6 11/11/6
f 13/12/7 7/13/7 12/14/8
f 13/12/9 9/15/9 8/16/9
f 14/17/10 10/18/10 9/19/10
f 16/20/11 10/18/12 15/21/13
f 1/3/14 5/22/14 16/23/14
f 2/1/1 3/24/1 4/2/1
f 10/4/2 5/25/2 4/5/2
f 4/5/2 3/26/2 6/6/2
f 6/6/2 7/27/2 8/28/2
f 8/28/2 9/29/2 6/6/2
f 9/29/2 10/4/2 6/6/2
f 2/7/3 11/11/15 6/8/4
f 12/10/6 7/30/6 6/8/6
f 13/12/7 8/16/7 7/13/7
f 13/12/9 14/31/9 9/15/9
f 14/17/10 15/21/10 10/18/10
f 16/20/11 5/32/16 10/18/12
f 1/3/14 4/2/14 5/22/14
usemtl glass.001
f 22/33/17 23/34/17 24/35/17
f 26/36/18 28/37/19 25/38/18
f 28/39/20 29/40/20 30/41/20
f 31/42/21 27/43/22 26/44/21
f 33/45/23 32/46/24 31/42/23
f 35/47/25 34/48/26 33/49/25
f 37/50/27 36/51/28 35/52/27
f 39/53/29 38/54/30 37/50/29
f 41/55/31 40/56/32 39/53/31
f 25/38/33 42/57/34 41/58/33
f 29/59/17 44/60/17 30/61/17
f 27/62/20 45/63/20 29/40/20
f 32/64/20 46/65/20 45/63/20
f 34/66/20 47/67/20 46/65/20
f 36/68/20 48/69/20 47/67/20
f 38/70/20 49/71/20 48/69/20
f 40/72/20 50/73/20 49/71/20
f 42/74/20 30/41/20 50/73/20
f 43/75/19 52/76/19 44/77/19
f 45/78/17 43/79/17 29/59/17
f 45/78/17 54/80/17 53/81/17
f 46/82/17 55/83/17 54/80/17
f 48/84/17 55/83/17 47/85/17
f 49/86/17 56/87/17 48/84/17
f 49/86/17 58/88/17 57/89/17
f 50/90/17 44/60/17 58/88/17
f 51/91/2 60/92/2 52/93/2
f 53/94/22 51/95/22 43/96/22
f 54/97/24 61/98/24 53/94/24
f 55/99/26 62/100/26 54/101/26
f 56/102/28 63/103/28 55/104/28
f 57/105/30 64/106/30 56/102/30
f 58/107/32 65/108/32 57/105/32
f 44/77/34 66/109/34 58/110/34
f 60/92/2 2/111/2 1/112/2
f 61/113/2 59/114/2 51/91/2
f 61/113/2 68/115/2 67/116/2
f 63/117/2 68/115/2 62/118/2
f 63/117/2 70/119/2 69/120/2
f 65/121/2 70/119/2 64/122/2
f 66/123/2 71/124/2 65/121/2
f 52/93/2 72/125/2 66/123/2
f 59/114/2 11/126/2 2/111/2
f 68/115/2 11/126/2 67/116/2
f 69/120/2 12/127/2 68/115/2
f 70/119/2 13/128/2 69/120/2
f 71/124/2 14/129/2 70/119/2
f 71/124/2 16/130/2 15/131/2
f 60/92/2 16/130/2 72/125/2
f 24/35/17 17/132/17 18/133/17
f 18/133/17 19/134/17 24/35/17
f 19/134/17 20/135/17 24/35/17
f 20/135/17 21/136/17 24/35/17
f 21/136/17 22/33/17 24/35/17
f 26/36/18 27/137/19 28/37/19
f 28/39/20 27/62/20 29/40/20
f 31/42/21 32/46/22 27/43/22
f 33/45/23 34/138/24 32/46/24
f 35/47/25 36/139/26 34/48/26
f 37/50/27 38/54/28 36/51/28
f 39/53/29 40/56/30 38/54/30
f 41/55/31 42/140/32 40/56/32
f 25/38/33 28/37/34 42/57/34
f 29/59/17 43/79/17 44/60/17
f 27/62/20 32/64/20 45/63/20
f 32/64/20 34/66/20 46/65/20
f 34/66/20 36/68/20 47/67/20
f 36/68/20 38/70/20 48/69/20
f 38/70/20 40/72/20 49/71/20
f 40/72/20 42/74/20 50/73/20
f 42/74/20 28/39/20 30/41/20
f 43/75/19 51/141/19 52/76/19
f 45/78/17 53/81/17 43/79/17
f 45/78/17 46/82/17 54/80/17
f 46/82/17 47/85/17 55/83/17
f 48/84/17 56/87/17 55/83/17
f 49/86/17 57/89/17 56/87/17
f 49/86/17 50/90/17 58/88/17
f 50/90/17 30/61/17 44/60/17
f 51/91/2 59/114/2 60/92/2
f 53/94/22 61/98/22 51/95/22
f 54/97/24 62/142/24 61/98/24
f 55/99/26 63/143/26 62/100/26
f 56/102/28 64/106/28 63/103/28
f 57/105/30 65/108/30 64/106/30
f 58/107/32 66/144/32 65/108/32
f 44/77/34 52/76/34 66/109/34
f 60/92/2 59/114/2 2/111/2
f 61/113/2 67/116/2 59/114/2
f 61/113/2 62/118/2 68/115/2
f 63/117/2 69/120/2 68/115/2
f 63/117/2 64/122/2 70/119/2
f 65/121/2 71/124/2 70/119/2
f 66/123/2 72/125/2 71/124/2
f 52/93/2 60/92/2 72/125/2
f 59/114/2 67/116/2 11/126/2
f 68/115/2 12/127/2 11/126/2
f 69/120/2 13/128/2 12/127/2
f 70/119/2 14/129/2 13/128/2
f 71/124/2 15/131/2 14/129/2
f 71/124/2 72/125/2 16/130/2
f 60/92/2 1/112/2 16/130/2
usemtl Material.000
f 73/145/33 18/146/34 17/147/34
f 74/148/31 19/149/32 18/150/32
f 75/151/29 20/152/30 19/149/30
f 76/153/27 21/154/28 20/152/28
f 77/155/25 22/156/26 21/157/26
f 78/158/23 23/159/24 22/160/24
f 80/161/18 17/147/19 24/162/19
f 79/163/21 24/164/22 23/159/22
f 73/145/18 26/36/18 25/38/18
f 80/165/21 31/42/21 26/44/21
f 78/158/23 31/42/23 79/163/23
f 78/166/25 35/47/25 33/49/25
f 76/153/27 35/52/27 77/167/27
f 75/151/29 37/50/29 76/153/29
f 75/151/31 41/55/31 39/53/31
f 73/145/33 41/58/33 74/168/33
f 73/145/33 74/168/33 18/146/34
f 74/148/31 75/151/31 19/149/32
f 75/151/29 76/153/29 20/152/30
f 76/153/27 77/167/27 21/154/28
f 77/155/25 78/166/25 22/156/26
f 78/158/23 79/163/23 23/159/24
f 80/161/18 73/145/18 17/147/19
f 79/163/21 80/165/21 24/164/22
f 73/145/18 80/161/18 26/36/18
f 80/165/21 79/163/21 31/42/21
f 78/158/23 33/45/23 31/42/23
f 78/166/25 77/155/25 35/47/25
f 76/153/27 37/50/27 35/52/27
f 75/151/29 39/53/29 37/50/29
f 75/151/31 74/148/31 41/55/31
f 73/145/33 25/38/33 41/58/33
