# Blender v2.79 (sub 7) OBJ File: ''
# www.blender.org
mtllib scale.mtl
o Crate1_Plane.001
v -0.459151 0.149999 -0.487990
v 0.350000 0.959152 -0.487993
v 0.459151 0.850000 -0.487992
v -0.349999 0.040848 -0.487990
v -0.350000 0.040848 -0.463018
v 0.459151 0.850000 -0.463021
v 0.350000 0.959152 -0.463021
v -0.459151 0.150000 -0.463019
v 0.372474 0.127527 -0.462962
v 0.372473 0.872474 -0.462964
v 0.372473 0.872474 -0.502964
v 0.372474 0.127527 -0.502962
v 0.500000 1.000000 -0.462965
v 0.500000 0.000000 -0.462962
v 0.500000 0.000000 -0.502961
v 0.500000 1.000000 -0.502965
v -0.372473 0.127526 -0.462962
v -0.372473 0.127526 -0.502962
v -0.500000 0.000000 -0.462962
v -0.500000 -0.000001 -0.502962
v -0.500000 0.999999 -0.502965
v -0.372474 0.872473 -0.502964
v -0.500000 0.999999 -0.462965
v -0.372474 0.872473 -0.462964
v -0.350000 0.987990 0.459151
v 0.459151 0.987993 -0.350000
v 0.350000 0.987993 -0.459151
v -0.459151 0.987990 0.350000
v -0.459151 0.963018 0.350000
v 0.350000 0.963021 -0.459151
v 0.459151 0.963021 -0.350000
v -0.350000 0.963019 0.459151
v -0.372473 0.962962 -0.372473
v 0.372473 0.962964 -0.372473
v 0.372473 1.002964 -0.372473
v -0.372474 1.002962 -0.372473
v 0.500000 0.962965 -0.500000
v -0.500000 0.962962 -0.500000
v -0.500000 1.002962 -0.500000
v 0.500000 1.002965 -0.500000
v -0.372473 0.962962 0.372473
v -0.372473 1.002962 0.372473
v -0.500000 0.962962 0.500000
v -0.500000 1.002962 0.500000
v 0.500000 1.002965 0.500000
v 0.372473 1.002964 0.372473
v 0.500000 0.962965 0.500000
v 0.372473 0.962964 0.372473
v 0.459151 0.012009 -0.350000
v -0.350000 0.012008 0.459151
v -0.459151 0.012009 0.349999
v 0.350000 0.012010 -0.459152
v 0.350000 0.036982 -0.459152
v -0.459151 0.036981 0.349999
v -0.350000 0.036980 0.459151
v 0.459151 0.036981 -0.350000
v -0.372473 0.037039 -0.372474
v -0.372473 0.037037 0.372473
v -0.372473 -0.002963 0.372473
v -0.372473 -0.002961 -0.372474
v -0.500000 0.037037 0.499999
v -0.500000 0.037040 -0.500000
v -0.500000 -0.002960 -0.500001
v -0.500000 -0.002963 0.499999
v 0.372473 0.037038 -0.372474
v 0.372473 -0.002962 -0.372474
v 0.500000 0.037038 -0.500000
v 0.500000 -0.002962 -0.500001
v 0.500000 -0.002965 0.499999
v 0.372473 -0.002964 0.372473
v 0.500000 0.037035 0.499999
v 0.372473 0.037035 0.372473
v 0.459152 0.150000 0.487991
v -0.350000 0.959151 0.487993
v -0.459152 0.849999 0.487992
v 0.350000 0.040849 0.487991
v 0.350000 0.040849 0.463019
v -0.459152 0.849999 0.463020
v -0.350000 0.959151 0.463021
v 0.459152 0.150000 0.463019
v -0.372473 0.127526 0.462962
v -0.372474 0.872473 0.462964
v -0.372474 0.872473 0.502964
v -0.372473 0.127526 0.502962
v -0.500000 0.999999 0.462964
v -0.499999 -0.000001 0.462961
v -0.500000 -0.000001 0.502961
v -0.500000 0.999999 0.502964
v 0.372474 0.127527 0.462963
v 0.372474 0.127527 0.502963
v 0.500000 -0.000000 0.462963
v 0.500000 -0.000000 0.502963
v 0.500000 1.000000 0.502966
v 0.372473 0.872473 0.502965
v 0.499999 1.000000 0.462966
v 0.372473 0.872473 0.462965
v 0.487992 0.850000 0.459151
v 0.487992 0.040849 -0.350000
v 0.487992 0.150000 -0.459151
v 0.487991 0.959151 0.350000
v 0.463019 0.959151 0.350000
v 0.463020 0.150000 -0.459151
v 0.463020 0.040849 -0.350000
v 0.463020 0.850000 0.459151
v 0.462962 0.872473 -0.372473
v 0.462964 0.127527 -0.372473
v 0.502964 0.127527 -0.372473
v 0.502962 0.872473 -0.372473
v 0.462963 0.000000 -0.500000
v 0.462961 1.000000 -0.500000
v 0.502961 1.000000 -0.500000
v 0.502964 0.000000 -0.500000
v 0.462963 0.872473 0.372474
v 0.502963 0.872473 0.372474
v 0.462963 1.000000 0.500000
v 0.502963 1.000000 0.500000
v 0.502966 -0.000000 0.500000
v 0.502965 0.127527 0.372474
v 0.462965 -0.000000 0.500000
v 0.462965 0.127527 0.372474
v -0.487990 0.150000 0.459151
v -0.487993 0.959151 -0.350000
v -0.487992 0.850000 -0.459151
v -0.487990 0.040849 0.350000
v -0.463018 0.040849 0.350000
v -0.463021 0.850000 -0.459151
v -0.463021 0.959151 -0.350000
v -0.463019 0.150000 0.459151
v -0.462962 0.127527 -0.372473
v -0.462964 0.872473 -0.372473
v -0.502964 0.872473 -0.372473
v -0.502962 0.127526 -0.372473
v -0.462965 1.000000 -0.500000
v -0.462962 0.000000 -0.500000
v -0.502961 0.000000 -0.500000
v -0.502965 1.000000 -0.500000
v -0.462962 0.127527 0.372473
v -0.502962 0.127526 0.372473
v -0.462962 -0.000000 0.500000
v -0.502962 -0.000000 0.500000
v -0.502965 1.000000 0.500000
v -0.502964 0.872473 0.372473
v -0.462965 1.000000 0.500000
v -0.462965 0.872473 0.372473
vt 0.150000 0.959151
vt 0.959152 0.150000
vt 0.850000 0.040849
vt 0.040849 0.850000
vt 0.040849 0.850000
vt 0.850000 0.040849
vt 0.959152 0.150000
vt 0.150000 0.959151
vt 0.150000 0.010002
vt 0.040849 0.010002
vt 0.040849 0.034974
vt 0.150000 0.034974
vt 0.959152 0.009998
vt 0.959152 0.034970
vt 0.850000 0.009999
vt 0.850000 0.034971
vt 0.127527 0.035030
vt 0.872474 0.035027
vt 0.872474 -0.004973
vt 0.127527 -0.004970
vt 0.000000 0.035026
vt -1.000000 0.035031
vt -1.000000 -0.004969
vt 0.000000 -0.004974
vt 0.872473 0.035030
vt 0.872473 -0.004970
vt 0.000000 0.035031
vt 1.000000 0.035031
vt 1.000000 -0.004969
vt 0.000000 -0.004969
vt 0.000000 1.000000
vt 1.000000 1.000000
vt 0.872474 0.872473
vt 0.127527 0.872473
vt 0.000000 0.000000
vt 0.000000 -1.000000
vt -0.127526 -0.872473
vt -0.127526 -0.127527
vt 0.000000 0.000000
vt -1.000000 0.000000
vt -0.872473 0.127527
vt -0.127526 0.127527
vt 0.000000 0.000000
vt 0.127527 0.127527
vt 1.000000 0.035026
vt 1.000000 -0.004974
vt 0.127527 0.035027
vt 0.872473 0.035027
vt 0.872473 -0.004973
vt 0.127527 -0.004973
vt 0.000000 0.035031
vt 0.000000 -0.004969
vt 0.127527 0.035030
vt 0.127527 -0.004970
vt 0.000000 0.000000
vt 0.000000 1.000000
vt 1.000000 1.000000
vt 1.000000 0.000000
vt 0.150000 0.959151
vt 0.959152 0.150000
vt 0.850000 0.040849
vt 0.040849 0.850000
vt 0.040849 0.850000
vt 0.850000 0.040849
vt 0.959152 0.150000
vt 0.150000 0.959151
vt 0.150000 0.010002
vt 0.040849 0.010002
vt 0.040849 0.034974
vt 0.150000 0.034974
vt 0.959152 0.009998
vt 0.959152 0.034970
vt 0.850000 0.009999
vt 0.850000 0.034971
vt 0.127527 0.035030
vt 0.872474 0.035027
vt 0.872474 -0.004973
vt 0.127527 -0.004970
vt 0.000000 0.035026
vt -1.000000 0.035031
vt -1.000000 -0.004969
vt 0.000000 -0.004974
vt 0.872473 0.035030
vt 0.872473 -0.004970
vt 0.000000 0.035031
vt 1.000000 0.035031
vt 1.000000 -0.004969
vt 0.000000 -0.004969
vt 0.000000 1.000000
vt 1.000000 1.000000
vt 0.872474 0.872473
vt 0.127527 0.872473
vt 0.000000 0.000000
vt 0.000000 -1.000000
vt -0.127526 -0.872473
vt -0.127526 -0.127527
vt 0.000000 0.000000
vt -1.000000 0.000000
vt -0.872473 0.127527
vt -0.127526 0.127527
vt 0.000000 0.000000
vt 0.127527 0.127527
vt 1.000000 0.035026
vt 1.000000 -0.004974
vt 0.127527 0.035027
vt 0.872473 0.035027
vt 0.872473 -0.004973
vt 0.127527 -0.004973
vt 0.000000 0.035031
vt 0.000000 -0.004969
vt 0.127527 0.035030
vt 0.127527 -0.004970
vt 0.000000 0.000000
vt 0.000000 1.000000
vt 1.000000 1.000000
vt 1.000000 0.000000
vt 0.150000 0.959151
vt 0.959152 0.150000
vt 0.850000 0.040849
vt 0.040849 0.850000
vt 0.040849 0.850000
vt 0.850000 0.040849
vt 0.959152 0.150000
vt 0.150000 0.959151
vt 0.150000 0.010002
vt 0.040849 0.010002
vt 0.040849 0.034974
vt 0.150000 0.034974
vt 0.959152 0.009998
vt 0.959152 0.034970
vt 0.850000 0.009999
vt 0.850000 0.034971
vt 0.127527 0.035030
vt 0.872474 0.035027
vt 0.872474 -0.004973
vt 0.127527 -0.004970
vt 0.000000 0.035026
vt -1.000000 0.035031
vt -1.000000 -0.004969
vt 0.000000 -0.004974
vt 0.872473 0.035030
vt 0.872473 -0.004970
vt 0.000000 0.035031
vt 1.000000 0.035031
vt 1.000000 -0.004969
vt 0.000000 -0.004969
vt 0.000000 1.000000
vt 1.000000 1.000000
vt 0.872474 0.872473
vt 0.127527 0.872473
vt 0.000000 0.000000
vt 0.000000 -1.000000
vt -0.127526 -0.872473
vt -0.127526 -0.127527
vt 0.000000 0.000000
vt -1.000000 0.000000
vt -0.872473 0.127527
vt -0.127526 0.127527
vt 0.000000 0.000000
vt 0.127527 0.127527
vt 1.000000 0.035026
vt 1.000000 -0.004974
vt 0.127527 0.035027
vt 0.872473 0.035027
vt 0.872473 -0.004973
vt 0.127527 -0.004973
vt 0.000000 0.035031
vt 0.000000 -0.004969
vt 0.127527 0.035030
vt 0.127527 -0.004970
vt 0.000000 0.000000
vt 0.000000 1.000000
vt 1.000000 1.000000
vt 1.000000 0.000000
vt 0.150000 0.959151
vt 0.959152 0.150000
vt 0.850000 0.040849
vt 0.040849 0.850000
vt 0.040849 0.850000
vt 0.850000 0.040849
vt 0.959152 0.150000
vt 0.150000 0.959151
vt 0.150000 0.010002
vt 0.040849 0.010002
vt 0.040849 0.034974
vt 0.150000 0.034974
vt 0.959152 0.009998
vt 0.959152 0.034970
vt 0.850000 0.009999
vt 0.850000 0.034971
vt 0.127527 0.035030
vt 0.872474 0.035027
vt 0.872474 -0.004973
vt 0.127527 -0.004970
vt 0.000000 0.035026
vt -1.000000 0.035031
vt -1.000000 -0.004969
vt 0.000000 -0.004974
vt 0.872473 0.035030
vt 0.872473 -0.004970
vt 0.000000 0.035031
vt 1.000000 0.035031
vt 1.000000 -0.004969
vt 0.000000 -0.004969
vt 0.000000 1.000000
vt 1.000000 1.000000
vt 0.872474 0.872473
vt 0.127527 0.872473
vt 0.000000 0.000000
vt 0.000000 -1.000000
vt -0.127526 -0.872473
vt -0.127526 -0.127527
vt 0.000000 0.000000
vt -1.000000 0.000000
vt -0.872473 0.127527
vt -0.127526 0.127527
vt 0.000000 0.000000
vt 0.127527 0.127527
vt 1.000000 0.035026
vt 1.000000 -0.004974
vt 0.127527 0.035027
vt 0.872473 0.035027
vt 0.872473 -0.004973
vt 0.127527 -0.004973
vt 0.000000 0.035031
vt 0.000000 -0.004969
vt 0.127527 0.035030
vt 0.127527 -0.004970
vt 0.000000 0.000000
vt 0.000000 1.000000
vt 1.000000 1.000000
vt 1.000000 0.000000
vt 0.150000 0.959151
vt 0.959152 0.150000
vt 0.850000 0.040849
vt 0.040849 0.850000
vt 0.040849 0.850000
vt 0.850000 0.040849
vt 0.959152 0.150000
vt 0.150000 0.959151
vt 0.150000 0.010002
vt 0.040849 0.010002
vt 0.040849 0.034974
vt 0.150000 0.034974
vt 0.959152 0.009998
vt 0.959152 0.034970
vt 0.850000 0.009999
vt 0.850000 0.034971
vt 0.127527 0.035030
vt 0.872474 0.035027
vt 0.872474 -0.004973
vt 0.127527 -0.004970
vt 0.000000 0.035026
vt -1.000000 0.035031
vt -1.000000 -0.004969
vt 0.000000 -0.004974
vt 0.872473 0.035030
vt 0.872473 -0.004970
vt 0.000000 0.035031
vt 1.000000 0.035031
vt 1.000000 -0.004969
vt 0.000000 -0.004969
vt 0.000000 1.000000
vt 1.000000 1.000000
vt 0.872474 0.872473
vt 0.127527 0.872473
vt 0.000000 0.000000
vt 0.000000 -1.000000
vt -0.127526 -0.872473
vt -0.127526 -0.127527
vt 0.000000 0.000000
vt -1.000000 0.000000
vt -0.872473 0.127527
vt -0.127526 0.127527
vt 0.000000 0.000000
vt 0.127527 0.127527
vt 1.000000 0.035026
vt 1.000000 -0.004974
vt 0.127527 0.035027
vt 0.872473 0.035027
vt 0.872473 -0.004973
vt 0.127527 -0.004973
vt 0.000000 0.035031
vt 0.000000 -0.004969
vt 0.127527 0.035030
vt 0.127527 -0.004970
vt 0.000000 0.000000
vt 0.000000 1.000000
vt 1.000000 1.000000
vt 1.000000 0.000000
vt 0.150000 0.959151
vt 0.959152 0.150000
vt 0.850000 0.040849
vt 0.040849 0.850000
vt 0.040849 0.850000
vt 0.850000 0.040849
vt 0.959152 0.150000
vt 0.150000 0.959151
vt 0.150000 0.010002
vt 0.040849 0.010002
vt 0.040849 0.034974
vt 0.150000 0.034974
vt 0.959152 0.009998
vt 0.959152 0.034970
vt 0.850000 0.009999
vt 0.850000 0.034971
vt 0.127527 0.035030
vt 0.872474 0.035027
vt 0.872474 -0.004973
vt 0.127527 -0.004970
vt 0.000000 0.035026
vt -1.000000 0.035031
vt -1.000000 -0.004969
vt 0.000000 -0.004974
vt 0.872473 0.035030
vt 0.872473 -0.004970
vt 0.000000 0.035031
vt 1.000000 0.035031
vt 1.000000 -0.004969
vt 0.000000 -0.004969
vt 0.000000 1.000000
vt 1.000000 1.000000
vt 0.872474 0.872473
vt 0.127527 0.872473
vt 0.000000 0.000000
vt 0.000000 -1.000000
vt -0.127526 -0.872473
vt -0.127526 -0.127527
vt 0.000000 0.000000
vt -1.000000 0.000000
vt -0.872473 0.127527
vt -0.127526 0.127527
vt 0.000000 0.000000
vt 0.127527 0.127527
vt 1.000000 0.035026
vt 1.000000 -0.004974
vt 0.127527 0.035027
vt 0.872473 0.035027
vt 0.872473 -0.004973
vt 0.127527 -0.004973
vt 0.000000 0.035031
vt 0.000000 -0.004969
vt 0.127527 0.035030
vt 0.127527 -0.004970
vt 0.000000 0.000000
vt 0.000000 1.000000
vt 1.000000 1.000000
vt 1.000000 0.000000
vn 0.0000 -0.0000 -1.0000
vn -0.0000 0.0000 1.0000
vn -0.7071 -0.7071 -0.0000
vn -0.7071 0.7071 -0.0000
vn 0.7071 0.7071 0.0000
vn 0.7071 -0.7071 0.0000
vn -1.0000 -0.0000 0.0000
vn 1.0000 0.0000 0.0000
vn -0.0000 1.0000 0.0000
vn 0.0000 -1.0000 0.0000
vn -0.7071 0.0000 0.7071
vn 0.7071 0.0000 0.7071
vn 0.7071 0.0000 -0.7071
vn -0.7071 0.0000 -0.7071
vn 0.0000 0.7071 0.7071
vn 0.0000 -0.7071 0.7071
vn 0.0000 -0.7071 -0.7071
vn 0.0000 0.7071 -0.7071
usemtl Crate1
s 1
f 1/1/1 2/2/1 3/3/1 4/4/1
f 5/5/2 6/6/2 7/7/2 8/8/2
f 1/9/3 4/10/3 5/11/3 8/12/3
f 2/13/4 1/9/4 8/12/4 7/14/4
f 3/15/5 2/13/5 7/14/5 6/16/5
f 4/10/6 3/15/6 6/16/6 5/11/6
f 9/17/7 10/18/7 11/19/7 12/20/7
f 13/21/8 14/22/8 15/23/8 16/24/8
f 17/25/9 9/17/9 12/20/9 18/26/9
f 14/27/10 19/28/10 20/29/10 15/30/10
f 20/31/1 21/32/1 22/33/1 18/34/1
f 21/35/1 16/36/1 11/37/1 22/38/1
f 16/39/1 15/40/1 12/41/1 11/42/1
f 15/43/1 20/31/1 18/34/1 12/44/1
f 23/45/9 13/21/9 16/24/9 21/46/9
f 10/47/10 24/48/10 22/49/10 11/50/10
f 19/51/7 23/45/7 21/46/7 20/52/7
f 24/48/8 17/53/8 18/54/8 22/49/8
f 14/55/1 19/56/1 23/57/1 13/58/1
f 25/59/9 26/60/9 27/61/9 28/62/9
f 29/63/10 30/64/10 31/65/10 32/66/10
f 25/67/11 28/68/11 29/69/11 32/70/11
f 26/71/12 25/67/12 32/70/12 31/72/12
f 27/73/13 26/71/13 31/72/13 30/74/13
f 28/68/14 27/73/14 30/74/14 29/69/14
f 33/75/2 34/76/2 35/77/2 36/78/2
f 37/79/1 38/80/1 39/81/1 40/82/1
f 41/83/8 33/75/8 36/78/8 42/84/8
f 38/85/7 43/86/7 44/87/7 39/88/7
f 44/89/9 45/90/9 46/91/9 42/92/9
f 45/93/9 40/94/9 35/95/9 46/96/9
f 40/97/9 39/98/9 36/99/9 35/100/9
f 39/101/9 44/89/9 42/92/9 36/102/9
f 47/103/8 37/79/8 40/82/8 45/104/8
f 34/105/7 48/106/7 46/107/7 35/108/7
f 43/109/2 47/103/2 45/104/2 44/110/2
f 48/106/1 41/111/1 42/112/1 46/107/1
f 38/113/9 43/114/9 47/115/9 37/116/9
f 49/117/10 50/118/10 51/119/10 52/120/10
f 53/121/9 54/122/9 55/123/9 56/124/9
f 49/125/13 52/126/13 53/127/13 56/128/13
f 50/129/12 49/125/12 56/128/12 55/130/12
f 51/131/11 50/129/11 55/130/11 54/132/11
f 52/126/14 51/131/14 54/132/14 53/127/14
f 57/133/8 58/134/8 59/135/8 60/136/8
f 61/137/7 62/138/7 63/139/7 64/140/7
f 65/141/2 57/133/2 60/136/2 66/142/2
f 62/143/1 67/144/1 68/145/1 63/146/1
f 68/147/10 69/148/10 70/149/10 66/150/10
f 69/151/10 64/152/10 59/153/10 70/154/10
f 64/155/10 63/156/10 60/157/10 59/158/10
f 63/159/10 68/147/10 66/150/10 60/160/10
f 71/161/2 61/137/2 64/140/2 69/162/2
f 58/163/1 72/164/1 70/165/1 59/166/1
f 67/167/8 71/161/8 69/162/8 68/168/8
f 72/164/7 65/169/7 66/170/7 70/165/7
f 62/171/10 67/172/10 71/173/10 61/174/10
f 73/175/2 74/176/2 75/177/2 76/178/2
f 77/179/1 78/180/1 79/181/1 80/182/1
f 73/183/6 76/184/6 77/185/6 80/186/6
f 74/187/5 73/183/5 80/186/5 79/188/5
f 75/189/4 74/187/4 79/188/4 78/190/4
f 76/184/3 75/189/3 78/190/3 77/185/3
f 81/191/8 82/192/8 83/193/8 84/194/8
f 85/195/7 86/196/7 87/197/7 88/198/7
f 89/199/9 81/191/9 84/194/9 90/200/9
f 86/201/10 91/202/10 92/203/10 87/204/10
f 92/205/2 93/206/2 94/207/2 90/208/2
f 93/209/2 88/210/2 83/211/2 94/212/2
f 88/213/2 87/214/2 84/215/2 83/216/2
f 87/217/2 92/205/2 90/208/2 84/218/2
f 95/219/9 85/195/9 88/198/9 93/220/9
f 82/221/10 96/222/10 94/223/10 83/224/10
f 91/225/8 95/219/8 93/220/8 92/226/8
f 96/222/7 89/227/7 90/228/7 94/223/7
f 86/229/2 91/230/2 95/231/2 85/232/2
f 97/233/8 98/234/8 99/235/8 100/236/8
f 101/237/7 102/238/7 103/239/7 104/240/7
f 97/241/15 100/242/15 101/243/15 104/244/15
f 98/245/16 97/241/16 104/244/16 103/246/16
f 99/247/17 98/245/17 103/246/17 102/248/17
f 100/242/18 99/247/18 102/248/18 101/243/18
f 105/249/2 106/250/2 107/251/2 108/252/2
f 109/253/1 110/254/1 111/255/1 112/256/1
f 113/257/10 105/249/10 108/252/10 114/258/10
f 110/259/9 115/260/9 116/261/9 111/262/9
f 116/263/8 117/264/8 118/265/8 114/266/8
f 117/267/8 112/268/8 107/269/8 118/270/8
f 112/271/8 111/272/8 108/273/8 107/274/8
f 111/275/8 116/263/8 114/266/8 108/276/8
f 119/277/10 109/253/10 112/256/10 117/278/10
f 106/279/9 120/280/9 118/281/9 107/282/9
f 115/283/2 119/277/2 117/278/2 116/284/2
f 120/280/1 113/285/1 114/286/1 118/281/1
f 110/287/8 115/288/8 119/289/8 109/290/8
f 121/291/7 122/292/7 123/293/7 124/294/7
f 125/295/8 126/296/8 127/297/8 128/298/8
f 121/299/16 124/300/16 125/301/16 128/302/16
f 122/303/15 121/299/15 128/302/15 127/304/15
f 123/305/18 122/303/18 127/304/18 126/306/18
f 124/300/17 123/305/17 126/306/17 125/301/17
f 129/307/2 130/308/2 131/309/2 132/310/2
f 133/311/1 134/312/1 135/313/1 136/314/1
f 137/315/9 129/307/9 132/310/9 138/316/9
f 134/317/10 139/318/10 140/319/10 135/320/10
f 140/321/7 141/322/7 142/323/7 138/324/7
f 141/325/7 136/326/7 131/327/7 142/328/7
f 136/329/7 135/330/7 132/331/7 131/332/7
f 135/333/7 140/321/7 138/324/7 132/334/7
f 143/335/9 133/311/9 136/314/9 141/336/9
f 130/337/10 144/338/10 142/339/10 131/340/10
f 139/341/2 143/335/2 141/336/2 140/342/2
f 144/338/1 137/343/1 138/344/1 142/339/1
f 134/345/7 139/346/7 143/347/7 133/348/7
