# Blender v2.80 (sub 74) OBJ File: 'item_pedra.blend'
# www.blender.org
mtllib stone.mtl
o Cube_Cube.001
v 0.217757 0.233252 0.249432
v 0.252650 0.670136 0.246132
v -0.194128 0.202030 0.275928
v -0.195529 0.704662 0.247287
v 0.257557 0.243971 -0.221117
v 0.185022 0.705784 -0.116665
v -0.194158 0.258332 -0.192229
v -0.137574 0.688105 -0.176707
v -0.004936 0.227209 0.328416
v 0.297759 0.423639 0.261177
v 0.036860 0.755539 0.274925
v -0.236615 0.485540 0.309738
v -0.288733 0.226193 0.051665
v -0.230229 0.724958 -0.019155
v -0.188289 0.491544 -0.218139
v 0.023986 0.198017 -0.269069
v 0.064581 0.769861 -0.201820
v 0.293566 0.478101 -0.235661
v 0.316440 0.222945 0.042167
v 0.267009 0.755887 0.070855
v -0.013689 0.461219 0.391004
v -0.329752 0.493393 0.046648
v 0.060046 0.487157 -0.352727
v 0.334670 0.418909 0.050354
v 0.000000 0.000000 0.000000
v 0.033881 0.922691 0.049042
vt 0.514443 0.500745
vt 0.668196 0.328996
vt 0.655653 0.498721
vt 0.484440 0.186233
vt 0.467755 0.365230
vt 0.735147 0.149823
vt 0.775914 0.306436
vt 0.751483 0.512514
vt 0.403829 0.135852
vt 0.206569 0.073912
vt 0.276020 0.000000
vt 0.932229 0.139553
vt 0.821672 0.000000
vt 0.985815 0.021134
vt 0.350588 0.395778
vt 0.170679 0.350083
vt 0.311394 0.215574
vt 0.096224 0.207754
vt 0.000000 0.258177
vt 0.251985 0.457870
vt 0.064822 0.461337
vt 0.670092 0.512514
vt 0.612717 0.746887
vt 0.526702 0.574466
vt 0.707080 0.681859
vt 0.845131 0.632681
vt 0.811100 0.799065
vt 0.965085 0.512514
vt 1.000000 0.590825
vt 0.429703 0.699491
vt 0.491998 0.924848
vt 0.403829 0.814044
vt 0.403829 0.371423
vt 0.416745 0.512514
vt 0.000000 0.812465
vt 0.230070 0.754786
vt 0.047346 0.933328
vt 0.140300 0.564632
vt 0.031674 0.647552
vt 1.000000 0.869650
vt 0.157786 1.000000
vt 0.403829 0.548369
vt 0.233728 0.564632
vt 0.839908 0.385200
vt 0.775914 0.158388
vt 0.609418 0.118798
vt 0.438442 0.126211
vt 0.560916 0.000000
vt 0.707080 0.938409
vt 0.707080 0.730488
vt 0.790939 0.531118
vt 0.544368 0.872853
vt 0.268766 0.628460
vt 0.268766 0.937459
vt 0.985815 0.294224
vn 0.3307 -0.2323 0.9147
vn 0.3947 0.1278 0.9099
vn -0.2950 0.3126 0.9029
vn -0.2259 -0.2596 0.9389
vn -0.9131 -0.1804 0.3657
vn -0.9068 0.2638 0.3289
vn -0.8561 0.2375 -0.4590
vn -0.9154 -0.1476 -0.3744
vn -0.3539 -0.0945 -0.9305
vn -0.4514 0.2940 -0.8425
vn 0.3871 0.5653 -0.7284
vn 0.2478 -0.2977 -0.9219
vn 0.9713 -0.0810 -0.2237
vn 0.8946 0.4455 -0.0364
vn 0.9683 0.1873 0.1653
vn 0.8963 -0.1014 0.4318
vn -0.0482 -0.8218 0.5678
vn -0.6177 -0.7123 -0.3334
vn 0.5822 -0.7898 -0.1933
vn 0.2194 -0.8008 0.5573
vn -0.3756 0.7704 -0.5153
vn -0.6163 0.7751 0.1393
vn 0.4629 0.7154 0.5233
vn 0.6210 0.7008 -0.3510
vn 0.3553 -0.2056 0.9119
vn 0.2480 0.3183 0.9150
vn -0.1922 0.3884 0.9012
vn -0.3536 -0.1628 0.9211
vn -0.9350 -0.1374 0.3269
vn -0.8925 0.4258 0.1487
vn -0.7841 0.3150 -0.5348
vn -0.8817 -0.0301 -0.4708
vn -0.4703 -0.1906 -0.8616
vn -0.2885 0.4545 -0.8427
vn 0.6574 0.3466 -0.6691
vn 0.4409 -0.1230 -0.8891
vn 0.9718 -0.1602 -0.1728
vn 0.8762 0.2025 -0.4372
vn 0.9682 0.1841 0.1694
vn 0.9052 -0.3907 0.1672
vn -0.5900 -0.7906 0.1637
vn -0.3989 -0.7212 -0.5663
vn 0.2688 -0.7870 -0.5552
vn 0.5251 -0.8002 0.2898
vn -0.4583 0.7670 -0.4490
vn -0.2395 0.7789 0.5796
vn 0.3812 0.8177 0.4313
vn 0.5512 0.7139 -0.4318
usemtl pedrinha
s off
f 1/1/1 21/2/1 9/3/1
f 2/4/2 21/2/2 10/5/2
f 21/2/3 4/6/3 12/7/3
f 21/2/4 3/8/4 9/3/4
f 12/9/5 13/10/5 3/11/5
f 4/12/6 22/13/6 12/14/6
f 14/15/7 15/16/7 22/17/7
f 22/17/8 7/18/8 13/10/8
f 15/16/9 16/19/9 7/18/9
f 8/20/10 23/21/10 15/16/10
f 23/22/11 6/23/11 18/24/11
f 23/25/12 5/26/12 16/27/12
f 5/26/13 24/28/13 19/29/13
f 6/23/14 24/30/14 18/24/14
f 24/30/15 2/31/15 10/32/15
f 24/33/16 1/1/16 19/34/16
f 3/35/17 25/36/17 9/37/17
f 7/38/18 25/36/18 13/39/18
f 25/40/19 5/26/19 19/29/19
f 25/36/20 1/41/20 9/37/20
f 8/20/21 26/42/21 17/43/21
f 4/12/22 26/44/22 14/45/22
f 11/46/23 20/47/23 26/48/23
f 26/49/24 6/23/24 17/50/24
f 1/1/25 10/5/25 21/2/25
f 2/4/26 11/46/26 21/2/26
f 21/2/27 11/46/27 4/6/27
f 21/2/28 12/7/28 3/8/28
f 12/9/29 22/17/29 13/10/29
f 4/12/30 14/45/30 22/13/30
f 14/15/31 8/20/31 15/16/31
f 22/17/32 15/16/32 7/18/32
f 15/16/33 23/21/33 16/19/33
f 8/20/34 17/43/34 23/21/34
f 23/22/35 17/50/35 6/23/35
f 23/25/36 18/51/36 5/26/36
f 5/26/37 18/51/37 24/28/37
f 6/23/38 20/52/38 24/30/38
f 24/30/39 20/52/39 2/31/39
f 24/33/40 10/5/40 1/1/40
f 3/35/41 13/39/41 25/36/41
f 7/38/42 16/53/42 25/36/42
f 25/40/43 16/27/43 5/26/43
f 25/36/44 19/54/44 1/41/44
f 8/20/45 14/15/45 26/42/45
f 4/12/46 11/55/46 26/44/46
f 11/46/47 2/4/47 20/47/47
f 26/49/48 20/52/48 6/23/48
