# Blender v2.80 (sub 74) OBJ File: 'Potions3.blend'
# www.blender.org
mtllib yellowpotion.mtl
o Potion_Cylinder.000
v -0.112995 1.375834 0.009939
v -0.079900 1.375834 0.089838
v -0.090869 1.530503 0.100808
v -0.128508 1.530503 0.009939
v -0.090869 1.530503 -0.080930
v 0.000000 1.530503 0.138447
v 0.090869 1.530503 0.100808
v 0.128508 1.530503 0.009939
v 0.090869 1.530503 -0.080930
v 0.000000 1.530503 -0.118569
v 0.000000 1.375834 0.122934
v 0.079899 1.375834 0.089838
v 0.112995 1.375834 0.009939
v 0.079899 1.375834 -0.069961
v 0.000000 1.375834 -0.103056
v -0.079900 1.375834 -0.069961
v -0.612392 -0.019468 0.009939
v -0.433026 -0.019468 -0.423087
v -0.000000 -0.019468 -0.602453
v 0.433026 -0.019468 -0.423087
v 0.612392 -0.019468 0.009939
v 0.433026 -0.019468 0.442965
v -0.000000 -0.019468 0.622330
v -0.433026 -0.019468 0.442965
v -0.116768 1.177131 0.009939
v -0.082568 1.177131 0.092506
v -0.082568 1.291587 0.092506
v -0.116768 1.291587 0.009939
v -0.082568 1.291587 0.092506
v -0.116768 1.291587 0.009939
v 0.000000 1.177131 0.126707
v 0.000000 1.291587 0.126707
v 0.082568 1.177131 0.092506
v 0.082568 1.291587 0.092506
v 0.116768 1.177131 0.009939
v 0.116768 1.291587 0.009939
v 0.082568 1.177131 -0.072629
v 0.082568 1.291587 -0.072629
v 0.000000 1.177131 -0.106830
v 0.000000 1.291587 -0.106830
v -0.082568 1.177131 -0.072629
v -0.082568 1.291587 -0.072629
v -0.105448 1.291587 0.115387
v -0.149126 1.291587 0.009939
v 0.000000 1.291587 0.126707
v 0.082568 1.291587 0.092506
v 0.116768 1.291587 0.009939
v 0.082568 1.291587 -0.072629
v 0.000000 1.291587 -0.106830
v -0.082568 1.291587 -0.072629
v -0.105448 1.375834 0.115387
v -0.149126 1.375834 0.009939
v 0.000000 1.291587 0.159065
v 0.105448 1.291587 0.115387
v 0.149126 1.291587 0.009939
v 0.105448 1.291587 -0.095509
v 0.000000 1.291587 -0.139187
v -0.105448 1.291587 -0.095509
v -0.100255 1.375834 0.110194
v -0.141782 1.375834 0.009939
v 0.000000 1.375834 0.159065
v 0.105448 1.375834 0.115387
v 0.149126 1.375834 0.009939
v 0.105448 1.375834 -0.095509
v 0.000000 1.375834 -0.139187
v -0.105448 1.375834 -0.095509
v 0.000000 1.375834 0.151720
v 0.100255 1.375834 0.110194
v 0.141781 1.375834 0.009939
v 0.100255 1.375834 -0.090316
v 0.000000 1.375834 -0.131843
v -0.100255 1.375834 -0.090316
v -0.612392 0.019468 0.009939
v -0.433026 0.019468 -0.423087
v 0.000000 0.019468 -0.602453
v 0.433026 0.019468 -0.423087
v 0.612392 0.019468 0.009939
v 0.433026 0.019468 0.442965
v 0.000000 0.019468 0.622330
v -0.433026 0.019468 0.442965
v -0.122205 0.927636 0.132143
v -0.172823 0.927636 0.009939
v 0.000000 0.927636 0.182762
v 0.122204 0.927636 0.132143
v 0.172823 0.927636 0.009939
v 0.122204 0.927636 -0.112266
v 0.000000 0.927636 -0.162884
v -0.122205 0.927636 -0.112266
v -0.082568 1.014984 0.092507
v -0.116768 1.014984 0.009939
v 0.000000 1.014984 0.126707
v 0.082568 1.014984 0.092507
v 0.116768 1.014984 0.009939
v 0.082568 1.014984 -0.072629
v 0.000000 1.014984 -0.106829
v -0.082568 1.014984 -0.072629
vt 0.818051 0.796384
vt 0.879904 0.814534
vt 0.815934 0.818881
vt 0.886856 0.701938
vt 0.916233 0.763463
vt 0.845311 0.788948
vt 1.000000 0.527660
vt 0.932325 0.500000
vt 0.996871 0.505252
vt 1.000000 0.559349
vt 0.935883 0.525484
vt 0.932325 0.587009
vt 0.935883 0.561525
vt 0.919361 0.783696
vt 0.980350 0.763463
vt 0.983908 0.788948
vt 0.916233 0.761288
vt 0.980350 0.727423
vt 0.916233 0.729598
vt 0.983908 0.701938
vt 0.881528 0.850547
vt 0.817361 0.850547
vt 0.882312 0.788948
vt 0.815934 0.763463
vt 0.815934 0.727423
vt 0.845311 0.701938
vt 0.916233 0.727423
vt 0.886856 0.788948
vt 0.996871 0.581758
vt 0.919361 0.707190
vt 0.139992 0.500000
vt 0.477963 0.621444
vt 0.337970 0.914634
vt 0.622520 0.958369
vt 0.595827 0.997195
vt 0.595827 0.955564
vt 0.000000 0.000000
vt 0.000000 0.000000
vt 0.000000 0.000000
vt 0.698069 0.455564
vt 0.671376 0.500000
vt 0.671376 0.458368
vt 0.735819 0.455564
vt 0.698069 0.497195
vt 0.762512 0.458369
vt 0.735819 0.497195
vt 0.257856 0.044436
vt 0.284549 0.000000
vt 0.284549 0.041631
vt 0.220106 0.044436
vt 0.257856 0.002805
vt 0.193413 0.041631
vt 0.220106 0.002805
vt 0.558077 0.997195
vt 0.558077 0.955564
vt 0.893004 0.510954
vt 0.932325 0.529573
vt 0.919697 0.534111
vt 0.000000 0.000000
vt 0.000000 0.000000
vt 0.000000 0.000000
vt 0.000000 0.000000
vt 0.000000 0.000000
vt 0.000000 0.000000
vt 0.000000 0.000000
vt 0.000000 0.000000
vt 0.000000 0.000000
vt 0.000000 0.000000
vt 0.000000 0.000000
vt 0.000000 0.000000
vt 0.000000 0.000000
vt 0.958341 0.102505
vt 0.991205 0.130685
vt 0.955925 0.132220
vt 0.855254 0.510954
vt 0.898235 0.500000
vt 0.815934 0.529573
vt 0.850024 0.500000
vt 0.828561 0.534111
vt 0.815934 0.571396
vt 0.855254 0.590015
vt 0.828561 0.566859
vt 0.893004 0.590015
vt 0.850024 0.600969
vt 0.932325 0.571396
vt 0.898235 0.600969
vt 0.919697 0.566859
vt 0.932325 0.672365
vt 0.929459 0.631572
vt 0.932325 0.630542
vt 0.971777 0.616583
vt 0.932325 0.587009
vt 0.967648 0.587009
vt 0.971777 0.658405
vt 0.936454 0.616583
vt 0.967648 0.687979
vt 0.936454 0.658405
vt 0.995378 0.029573
vt 0.955925 0.000000
vt 0.991249 0.000000
vt 0.995378 0.071396
vt 0.960055 0.029573
vt 0.991249 0.100969
vt 0.960055 0.071396
vt 0.993620 0.172455
vt 0.958341 0.173991
vt 0.918225 0.667298
vt 0.918225 0.635609
vt 0.898235 0.701938
vt 0.929459 0.671335
vt 0.851211 0.699452
vt 0.897047 0.699452
vt 0.815934 0.672365
vt 0.850024 0.701938
vt 0.818800 0.631572
vt 0.818800 0.671335
vt 0.850024 0.600969
vt 0.815934 0.630542
vt 0.898235 0.600969
vt 0.851211 0.603455
vt 0.897047 0.603455
vt 0.892394 0.689707
vt 0.855864 0.689707
vt 0.830034 0.667299
vt 0.830034 0.635609
vt 0.892394 0.613201
vt 0.855864 0.613201
vt 0.337971 0.500000
vt 0.477963 0.793191
vt 0.139992 0.914634
vt 0.000000 0.793190
vt 0.000000 0.621443
vt 0.622520 1.000000
vt 0.762512 0.500000
vt 0.193413 0.000000
vt 0.993620 0.100969
vt 0.932325 0.687979
vt 0.955926 0.100969
vt 0.675942 0.514162
vt 0.477963 0.500000
vt 0.675942 0.500000
vt 0.000000 0.471128
vt 0.139992 0.500000
vt 0.000000 0.485290
vt 0.139992 0.485838
vt 0.337971 0.500000
vt 0.337971 0.485838
vt 0.477963 0.485290
vt 0.955926 0.028872
vt 0.815933 0.000000
vt 0.955926 0.014710
vt 0.815933 0.014162
vt 0.617955 0.000000
vt 0.644395 0.866667
vt 0.604888 0.862516
vt 0.815934 0.528872
vt 0.815934 0.514710
vt 0.617955 0.014162
vt 0.477963 0.014710
vt 0.649501 0.366667
vt 0.477963 0.028872
vt 0.689008 0.362516
vt 0.784387 0.366667
vt 0.744879 0.362516
vt 0.306424 0.133333
vt 0.477963 0.471128
vt 0.266917 0.137484
vt 0.171538 0.133333
vt 0.211046 0.137484
vt 0.549016 0.862516
vt 0.477963 0.514162
vt 0.595827 0.896586
vt 0.671376 0.399390
vt 0.698069 0.396586
vt 0.762512 0.399390
vt 0.735819 0.396586
vt 0.257856 0.103414
vt 0.284549 0.100609
vt 0.220106 0.103414
vt 0.193413 0.100609
vt 0.558078 0.896586
vt 0.622521 0.899391
vn -0.9199 -0.0923 0.3810
vn 0.0000 1.0000 0.0000
vn -0.3811 -0.0923 0.9199
vn 0.3811 -0.0923 0.9199
vn 0.9199 -0.0923 0.3811
vn 0.9199 -0.0923 0.3810
vn 0.9199 -0.0923 -0.3811
vn 0.9199 -0.0923 -0.3810
vn 0.3810 -0.0923 -0.9199
vn -0.3810 -0.0923 -0.9199
vn -0.9199 -0.0923 -0.3810
vn -0.3810 -0.0923 0.9199
vn 0.3810 -0.0923 0.9199
vn -0.0000 -1.0000 0.0000
vn -0.9239 0.0000 0.3827
vn 0.0000 0.0000 1.0000
vn -0.3827 0.0000 0.9239
vn 0.3827 0.0000 0.9239
vn 0.9239 -0.0000 0.3827
vn 0.9239 -0.0000 -0.3827
vn 0.3827 -0.0000 -0.9239
vn -0.3827 -0.0000 -0.9239
vn -0.9239 0.0000 -0.3827
vn -0.8434 0.4082 0.3493
vn -0.3493 0.4082 0.8434
vn 0.3493 0.4082 0.8434
vn 0.8434 0.4082 0.3493
vn 0.8434 0.4082 -0.3493
vn 0.3493 0.4082 -0.8434
vn -0.3493 0.4082 -0.8434
vn -0.8434 0.4082 -0.3493
vn -0.7947 0.5100 0.3292
vn -0.3292 0.5100 0.7947
vn 0.3292 0.5100 0.7947
vn 0.7947 0.5100 0.3292
vn 0.7947 0.5100 -0.3292
vn 0.3292 0.5100 -0.7947
vn -0.3292 0.5100 -0.7947
vn -0.7947 0.5100 -0.3292
usemtl rolha
s 1
f 2/1/1 4/2/1 1/3/1
f 6/4/2 8/5/2 10/6/2
f 11/7/3 3/8/3 2/9/3
f 12/10/4 6/11/4 11/7/4
f 12/10/5 8/12/5 7/13/6
f 13/14/7 9/15/7 8/16/8
f 14/17/9 10/18/9 9/15/9
f 15/19/10 5/20/10 10/18/10
f 1/3/11 5/21/11 16/22/11
f 2/1/1 3/23/1 4/2/1
f 10/6/2 5/24/2 4/25/2
f 4/25/2 3/26/2 6/4/2
f 6/4/2 7/27/2 8/5/2
f 8/5/2 9/28/2 10/6/2
f 10/6/2 4/25/2 6/4/2
f 11/7/3 6/11/12 3/8/3
f 12/10/4 7/13/13 6/11/4
f 12/10/5 13/29/5 8/12/5
f 13/14/7 14/17/7 9/15/7
f 14/17/9 15/19/9 10/18/9
f 15/19/10 16/30/10 5/20/10
f 1/3/11 4/2/11 5/21/11
usemtl vidrinho
f 24/31/14 18/32/14 20/33/14
f 26/34/15 28/35/15 25/36/15
f 28/37/16 29/38/16 30/39/16
f 31/40/17 27/41/17 26/42/17
f 33/43/18 32/44/18 31/40/18
f 35/45/19 34/46/19 33/43/19
f 37/47/20 36/48/20 35/49/20
f 39/50/21 38/51/21 37/47/21
f 41/52/22 40/53/22 39/50/22
f 25/36/23 42/54/23 41/55/23
f 29/56/14 44/57/14 30/58/14
f 27/59/16 45/60/16 29/38/16
f 32/61/16 46/62/16 45/60/16
f 34/63/16 47/64/16 46/62/16
f 36/65/16 48/66/16 47/64/16
f 38/67/16 49/68/16 48/66/16
f 40/69/16 50/70/16 49/68/16
f 42/71/16 30/39/16 50/70/16
f 43/72/15 52/73/15 44/74/15
f 45/75/14 43/76/14 29/56/14
f 45/75/14 54/77/14 53/78/14
f 46/79/14 55/80/14 54/77/14
f 48/81/14 55/80/14 47/82/14
f 49/83/14 56/84/14 48/81/14
f 49/83/14 58/85/14 57/86/14
f 50/87/14 44/57/14 58/85/14
f 51/88/2 60/89/2 52/90/2
f 53/91/17 51/92/17 43/93/17
f 54/94/18 61/95/18 53/91/18
f 55/96/19 62/97/19 54/94/19
f 56/98/20 63/99/20 55/100/20
f 57/101/21 64/102/21 56/98/21
f 58/103/22 65/104/22 57/101/22
f 44/74/23 66/105/23 58/106/23
f 60/89/2 2/107/2 1/108/2
f 61/109/2 59/110/2 51/88/2
f 61/109/2 68/111/2 67/112/2
f 63/113/2 68/111/2 62/114/2
f 63/113/2 70/115/2 69/116/2
f 65/117/2 70/115/2 64/118/2
f 66/119/2 71/120/2 65/117/2
f 52/90/2 72/121/2 66/119/2
f 59/110/2 11/122/2 2/107/2
f 68/111/2 11/122/2 67/112/2
f 69/116/2 12/123/2 68/111/2
f 70/115/2 13/124/2 69/116/2
f 71/120/2 14/125/2 70/115/2
f 71/120/2 16/126/2 15/127/2
f 60/89/2 16/126/2 72/121/2
f 24/31/14 17/128/14 18/32/14
f 18/32/14 19/129/14 20/33/14
f 20/33/14 21/130/14 22/131/14
f 22/131/14 23/132/14 20/33/14
f 23/132/14 24/31/14 20/33/14
f 26/34/15 27/133/15 28/35/15
f 28/37/16 27/59/16 29/38/16
f 31/40/17 32/44/17 27/41/17
f 33/43/18 34/46/18 32/44/18
f 35/45/19 36/134/19 34/46/19
f 37/47/20 38/51/20 36/48/20
f 39/50/21 40/53/21 38/51/21
f 41/52/22 42/135/22 40/53/22
f 25/36/23 28/35/23 42/54/23
f 29/56/14 43/76/14 44/57/14
f 27/59/16 32/61/16 45/60/16
f 32/61/16 34/63/16 46/62/16
f 34/63/16 36/65/16 47/64/16
f 36/65/16 38/67/16 48/66/16
f 38/67/16 40/69/16 49/68/16
f 40/69/16 42/71/16 50/70/16
f 42/71/16 28/37/16 30/39/16
f 43/72/15 51/136/15 52/73/15
f 45/75/14 53/78/14 43/76/14
f 45/75/14 46/79/14 54/77/14
f 46/79/14 47/82/14 55/80/14
f 48/81/14 56/84/14 55/80/14
f 49/83/14 57/86/14 56/84/14
f 49/83/14 50/87/14 58/85/14
f 50/87/14 30/58/14 44/57/14
f 51/88/2 59/110/2 60/89/2
f 53/91/17 61/95/17 51/92/17
f 54/94/18 62/97/18 61/95/18
f 55/96/19 63/137/19 62/97/19
f 56/98/20 64/102/20 63/99/20
f 57/101/21 65/104/21 64/102/21
f 58/103/22 66/138/22 65/104/22
f 44/74/23 52/73/23 66/105/23
f 60/89/2 59/110/2 2/107/2
f 61/109/2 67/112/2 59/110/2
f 61/109/2 62/114/2 68/111/2
f 63/113/2 69/116/2 68/111/2
f 63/113/2 64/118/2 70/115/2
f 65/117/2 71/120/2 70/115/2
f 66/119/2 72/121/2 71/120/2
f 52/90/2 60/89/2 72/121/2
f 59/110/2 67/112/2 11/122/2
f 68/111/2 12/123/2 11/122/2
f 69/116/2 13/124/2 12/123/2
f 70/115/2 14/125/2 13/124/2
f 71/120/2 15/127/2 14/125/2
f 71/120/2 72/121/2 16/126/2
f 60/89/2 1/108/2 16/126/2
usemtl Material.002
f 73/139/23 18/140/23 17/141/23
f 74/142/22 19/143/22 18/144/22
f 75/145/21 20/146/21 19/143/21
f 76/147/20 21/148/20 20/146/20
f 77/149/19 22/150/19 21/151/19
f 78/152/18 23/153/18 22/150/18
f 73/139/24 81/154/24 82/155/24
f 80/156/15 17/141/15 24/157/15
f 79/158/17 24/159/17 23/153/17
f 79/158/25 81/160/25 80/161/25
f 78/152/26 83/162/26 79/158/26
f 78/152/27 85/163/27 84/164/27
f 76/147/28 85/165/28 77/166/28
f 75/145/29 86/167/29 76/147/29
f 75/145/30 88/168/30 87/169/30
f 73/139/31 88/170/31 74/171/31
f 81/154/32 90/172/32 82/155/32
f 83/162/33 89/173/33 81/160/33
f 84/164/34 91/174/34 83/162/34
f 84/164/35 93/175/35 92/176/35
f 85/165/36 94/177/36 93/178/36
f 86/167/37 95/179/37 94/177/37
f 87/169/38 96/180/38 95/179/38
f 82/155/39 96/181/39 88/170/39
f 90/172/15 26/34/15 25/36/15
f 89/173/17 31/40/17 26/42/17
f 92/176/18 31/40/18 91/174/18
f 93/175/19 33/43/19 92/176/19
f 94/177/20 35/49/20 93/178/20
f 95/179/21 37/47/21 94/177/21
f 95/179/22 41/52/22 39/50/22
f 90/172/23 41/55/23 96/181/23
f 73/139/23 74/171/23 18/140/23
f 74/142/22 75/145/22 19/143/22
f 75/145/21 76/147/21 20/146/21
f 76/147/20 77/166/20 21/148/20
f 77/149/19 78/152/19 22/150/19
f 78/152/18 79/158/18 23/153/18
f 73/139/24 80/156/24 81/154/24
f 80/156/15 73/139/15 17/141/15
f 79/158/17 80/161/17 24/159/17
f 79/158/25 83/162/25 81/160/25
f 78/152/26 84/164/26 83/162/26
f 78/152/27 77/149/27 85/163/27
f 76/147/28 86/167/28 85/165/28
f 75/145/29 87/169/29 86/167/29
f 75/145/30 74/142/30 88/168/30
f 73/139/31 82/155/31 88/170/31
f 81/154/32 89/182/32 90/172/32
f 83/162/33 91/174/33 89/173/33
f 84/164/34 92/176/34 91/174/34
f 84/164/35 85/163/35 93/175/35
f 85/165/36 86/167/36 94/177/36
f 86/167/37 87/169/37 95/179/37
f 87/169/38 88/168/38 96/180/38
f 82/155/39 90/172/39 96/181/39
f 90/172/15 89/182/15 26/34/15
f 89/173/17 91/174/17 31/40/17
f 92/176/18 33/43/18 31/40/18
f 93/175/19 35/45/19 33/43/19
f 94/177/20 37/47/20 35/49/20
f 95/179/21 39/50/21 37/47/21
f 95/179/22 96/180/22 41/52/22
f 90/172/23 25/36/23 41/55/23
